<?xml version="1.0" encoding="UTF-8"?>
<svg width="17px" height="17px" viewBox="0 0 17 17" version="1.1" xmlns="http://www.w3.org/2000/svg" xmlns:xlink="http://www.w3.org/1999/xlink">
    <!-- Generator: Sketch 64 (93537) - https://sketch.com -->
    <title>cpu</title>
    <desc>Created with Sketch.</desc>
    <g id="cpu" stroke="none" stroke-width="1" fill="none" fill-rule="evenodd">
        <rect id="Rectangle" fill="#000000" x="4" y="4" width="9" height="9"></rect>
        <rect id="Rectangle" fill="#000000" x="6" y="2" width="1" height="2"></rect>
        <rect id="Rectangle-Copy" fill="#000000" x="8" y="2" width="1" height="2"></rect>
        <rect id="Rectangle-Copy-2" fill="#000000" x="10" y="2" width="1" height="2"></rect>
        <rect id="Rectangle-Copy-5" fill="#000000" transform="translate(14.000000, 6.513726) rotate(-270.000000) translate(-14.000000, -6.513726) " x="13.5" y="5.51372563" width="1" height="2"></rect>
        <rect id="Rectangle-Copy-4" fill="#000000" transform="translate(14.000000, 8.513726) rotate(-270.000000) translate(-14.000000, -8.513726) " x="13.5" y="7.51372563" width="1" height="2"></rect>
        <rect id="Rectangle-Copy-3" fill="#000000" transform="translate(14.000000, 10.513726) rotate(-270.000000) translate(-14.000000, -10.513726) " x="13.5" y="9.51372563" width="1" height="2"></rect>
        <rect id="Rectangle-Copy-11" fill="#000000" transform="translate(10.500000, 14.000000) rotate(-180.000000) translate(-10.500000, -14.000000) " x="10" y="13" width="1" height="2"></rect>
        <rect id="Rectangle-Copy-10" fill="#000000" transform="translate(8.500000, 14.000000) rotate(-180.000000) translate(-8.500000, -14.000000) " x="8" y="13" width="1" height="2"></rect>
        <rect id="Rectangle-Copy-9" fill="#000000" transform="translate(6.500000, 14.000000) rotate(-180.000000) translate(-6.500000, -14.000000) " x="6" y="13" width="1" height="2"></rect>
        <rect id="Rectangle-Copy-8" fill="#000000" transform="translate(3.000000, 10.500000) rotate(-90.000000) translate(-3.000000, -10.500000) " x="2.5" y="9.5" width="1" height="2"></rect>
        <rect id="Rectangle-Copy-7" fill="#000000" transform="translate(3.000000, 8.500000) rotate(-90.000000) translate(-3.000000, -8.500000) " x="2.5" y="7.5" width="1" height="2"></rect>
        <rect id="Rectangle-Copy-6" fill="#000000" transform="translate(3.000000, 6.500000) rotate(-90.000000) translate(-3.000000, -6.500000) " x="2.5" y="5.5" width="1" height="2"></rect>
    </g>
</svg>