<?xml version="1.0" encoding="iso-8859-1"?>
<!-- Generator: Adobe Illustrator 19.0.0, SVG Export Plug-In . SVG Version: 6.00 Build 0)  -->
<svg version="1.1" id="Layer_1" xmlns="http://www.w3.org/2000/svg" xmlns:xlink="http://www.w3.org/1999/xlink" x="0px" y="0px"
	 viewBox="0 0 472.645 472.645" style="enable-background:new 0 0 472.645 472.645;" xml:space="preserve">
<g>
	<g>
		<path d="M101.019,101.019v270.577h270.577V101.019H101.019z M351.904,351.904H120.712V120.712h231.192V351.904z"/>
	</g>
</g>
<g>
	<g>
		<rect x="312.517" width="19.692" height="69.415"/>
	</g>
</g>
<g>
	<g>
		<rect x="255.143" width="19.692" height="69.415"/>
	</g>
</g>
<g>
	<g>
		<rect x="197.809" width="19.692" height="69.415"/>
	</g>
</g>
<g>
	<g>
		<rect x="140.406" width="19.692" height="69.415"/>
	</g>
</g>
<g>
	<g>
		<rect x="312.517" y="403.23" width="19.692" height="69.415"/>
	</g>
</g>
<g>
	<g>
		<rect x="255.143" y="403.23" width="19.692" height="69.415"/>
	</g>
</g>
<g>
	<g>
		<rect x="197.809" y="403.23" width="19.692" height="69.415"/>
	</g>
</g>
<g>
	<g>
		<rect x="140.406" y="403.23" width="19.692" height="69.415"/>
	</g>
</g>
<g>
	<g>
		<rect y="140.406" width="69.415" height="19.692"/>
	</g>
</g>
<g>
	<g>
		<rect y="197.809" width="69.415" height="19.692"/>
	</g>
</g>
<g>
	<g>
		<rect y="255.143" width="69.415" height="19.692"/>
	</g>
</g>
<g>
	<g>
		<rect y="312.517" width="69.415" height="19.692"/>
	</g>
</g>
<g>
	<g>
		<rect x="403.23" y="140.406" width="69.415" height="19.692"/>
	</g>
</g>
<g>
	<g>
		<rect x="403.23" y="197.809" width="69.415" height="19.692"/>
	</g>
</g>
<g>
	<g>
		<rect x="403.23" y="255.143" width="69.415" height="19.692"/>
	</g>
</g>
<g>
	<g>
		<rect x="403.23" y="312.517" width="69.415" height="19.692"/>
	</g>
</g>
<g>
</g>
<g>
</g>
<g>
</g>
<g>
</g>
<g>
</g>
<g>
</g>
<g>
</g>
<g>
</g>
<g>
</g>
<g>
</g>
<g>
</g>
<g>
</g>
<g>
</g>
<g>
</g>
<g>
</g>
</svg>
